<svg xmlns="http://www.w3.org/2000/svg" version="1.1" xmlns:xlink="http://www.w3.org/1999/xlink" xmlns:svgjs="http://svgjs.dev/svgjs" width="1500" height="1682" viewBox="0 0 1500 1682"><g transform="matrix(1,0,0,1,-2.336338785046678,0)"><svg viewBox="0 0 321 360" data-background-color="#1a1a1a" preserveAspectRatio="xMidYMid meet" height="1682" width="1500" xmlns="http://www.w3.org/2000/svg" xmlns:xlink="http://www.w3.org/1999/xlink"><g id="tight-bounds" transform="matrix(1,0,0,1,0.5000234999999975,0)"><svg viewBox="0 0 320 360" height="360" width="320"><g><svg></svg></g><g><svg viewBox="0 0 320 360" height="360" width="320"><g><path transform="translate(-74.99272,-51.79039) scale(4.65793,4.65793)" d="M20.6 59.9l0.8 1-0.4-1.3c-0.1-0.6-0.8 0.1-0.4 0.3M21.5 59.3c0.3 0.5 0.6 1 0.6 1.5 0 0.7 0.6 1 1.1 1.2-0.7-0.8-1.1-3-1.7-2.7M59.9 16.9c1.7 0 3.3-0.2 5.1 0.2 4.4 1.1 8.1 3.3 10.6 6.4l7 11.2c0.3 2.8 0.9 5.9 0.8 9.3 0.7 0 0.6-1 1.4-1.2-0.8 2-1.2 4.5-1.4 7.4-0.5-1.6 0-4 0.1-5.3-0.7 1.1-1.1 0.3-1.1-0.2 0.1-0.8-0.3-0.7-0.6-1-1.1-1-1.8-2.1-2.6-3.8 0.5-1.3 0.6-3.2-1-4.2-0.5-0.3-1.1-0.8-1.4-1.6-0.4-1.1-1.1-2.4-0.9-4.1 0.1-0.5-1.5 1.1-2.4 0.4-3.9-2.7-7.8-5.8-12.5-8.4-2.5 0-4.3-0.9-5.2-2-0.8-1-0.2-2.3 1-2.4 0.7 0 1.5-0.2 2.1 0.2 0.1-0.4 0.5-0.9 1-0.9M50 14.6l0.2 0.1c1 0.2 1.5 1.6 2.6 1.1 0 0.7 0.1 1.4-0.1 1.9-0.3 0.8-1.2 0.8-1.9 0.8-6.7-0.4-10.6 2.4-14.7 4.8-1.1 0.7-2.3 1.2-3.2 2.1-4.3 4-9 7.7-10.1 15.1l-0.9 8.2c-0.1 0.9-1.1 1.8-0.9 2.9l0.7 4.9c-0.7-0.7-1.1 0.2-0.9 0.6 0.1 0.3 0.5 1.3 1.1 0.4 0.8 1.5 1.6 4.4 2.7 5.7 3.4 4 7.8 7.6 11.4 11.2 0.9-0.2 1.6-0.2 1.8-0.8 0.3 0.6-0.3 1.2-0.8 1.3 1.6 1 3.4 1.9 5.8 2.1 3.1 0.2 6 0.7 8.7 1.4 1.4-0.4 2.8-0.6 4.3-0.7 0.5 0 0.8-0.8 1.4-1l0.1-1c0.6 0.9 0.5-0.3 0.1-0.9 0.7 0.6 0.9 1.1 1.2 1.5 0-0.3 0.8-1.4 0.8-0.1l0.2-1.3c0.3-0.2 0.4 1.1 0.7 0.2 0.3-0.9 0.9-0.2 1.5-0.5-0.2 0.4-0.1 1.2 0.6 0.7l0.8-0.7c0.5 1.2 1.3 0.7 1.7 0.5 4.4-2.8 8.8-6.1 13-9.4l-0.1 1.3 0.5-1.6c0.5 0.5 0.9 0.1 1.1-0.2 0.6-1 1.4-2 2.7-2.9-1.6 4.3-3.5 7.7-5.9 10.5l-1 1.2c0 0.7-0.2 1.6-1 1.7-0.4 0.1-1.2-0.2-1.8 0.4-0.3 0.4 0.7 1.2-0.1 0.6-0.7-0.5-1.4 0-2.2 0.2-0.6 0.2 0.4 0.8 0.6 1.2 0.2 0.4 0.4 0.8 0.3 1.3l-1.1-1.2c-1.3 0.7-2.1 2-3.2 3-0.5 0.4-0.3 1.1-0.3 1.7-0.7 0-1.5-0.2-1.9 0.2-0.3 0.4-0.2 1-0.2 1.6-1-0.1-1.1-1.6-2-1.3-0.9 0.2-1.9 0.3-2.7 0.8 0.6 1.2-1 0.5-0.8 0.7-1.5-0.9-2.8-1.6-4.4-1-3.4-1.1-7.6-0.6-10.7-0.2 0-0.5 0.1-1-0.1-1.1-0.2 0.5-0.8 0.3-0.7 0.3-1.9-1.3-3.8-2.1-5.8-3.2-1.8 0.2-3.5-0.7-4-1.2-1.4-1.3-3-0.6-4.3-0.9-2.8-0.7-3.8-3.6-4.1-5.6-0.2-1-1-1.4-1.3-1.3-1.3-4.2-3.3-8-4.9-11.9-0.4-1-0.3-2-0.3-3.1 0.5 0.2 1 0.1 0.9-0.6-0.5-3.3-1.7-5.8-3-8.2 0.7-3.4 0.8-7.4 2.4-10.4 1.4-2.7 4-4.1 5.8-6.4 0.6-0.8 0.6-1.9 1.2-2.6 2-2 4-4.1 6.2-5.9 1-0.8 2.2 0 3.7-0.3 0.5-1.8 2.5-3.4 4.4-2.9 0.8 0.2 2.4-1.9 2.9-2.1 0.8-0.3 0.4 0.8 0.4 1.5 1.9-1.5 4.5-2.3 6.9-3.2" fill="#6ee2f5" fill-rule="nonzero" stroke="none" stroke-width="1" stroke-linecap="butt" stroke-linejoin="miter" stroke-miterlimit="10" stroke-dasharray="" stroke-dashoffset="0" font-family="none" font-weight="none" font-size="none" text-anchor="none" style="mix-blend-mode: normal" data-fill-palette-color="tertiary"></path></g><g transform="matrix(1,0,0,1,64,137.59487833811198)"><svg viewBox="0 0 192 84.81024332377606" height="84.81024332377606" width="192"><g><svg viewBox="0 0 192 84.81024332377606" height="84.81024332377606" width="192"><g><svg viewBox="0 0 192 84.81024332377606" height="84.81024332377606" width="192"><g transform="matrix(1,0,0,1,0,51.26087897430351)"><svg viewBox="0 0 192 33.549364349472555" height="33.549364349472555" width="192"><g id="textblocktransform"><svg viewBox="0 0 192 33.549364349472555" height="33.549364349472555" width="192" id="textblock"><g><svg viewBox="0 0 192 33.549364349472555" height="33.549364349472555" width="192"><g transform="matrix(1,0,0,1,0,0)"><svg width="192" viewBox="1.8 -31.85 184.82999999999998 32.300000000000004" height="33.549364349472555" data-palette-color="#ffffff"><path d="M15-12.45L15-12.45 8.05-14.1Q4.6-14.9 3.2-16.73 1.8-18.55 1.8-21.95L1.8-21.95Q1.8-27.05 4.6-29.45 7.4-31.85 13.3-31.85L13.3-31.85Q15.75-31.85 17.68-31.63 19.6-31.4 21.25-30.95L21.25-30.95 21.25-25.55Q18.4-26.1 16.7-26.28 15-26.45 13.2-26.45L13.2-26.45Q10.2-26.45 8.95-25.53 7.7-24.6 7.7-22.35L7.7-22.35Q7.7-21.05 8.22-20.38 8.75-19.7 10-19.4L10-19.4 16.75-17.8Q19.1-17.25 20.25-16.68 21.4-16.1 22.15-15.25L22.15-15.25Q22.9-14.3 23.28-12.9 23.65-11.5 23.65-9.45L23.65-9.45Q23.65-4.15 20.85-1.85 18.05 0.45 12.15 0.45L12.15 0.45Q9.1 0.45 6.28 0.05 3.45-0.35 1.85-0.95L1.85-0.95 1.85-6.6Q4-5.95 6.73-5.58 9.45-5.2 12.15-5.2L12.15-5.2Q15.1-5.2 16.28-6.03 17.45-6.85 17.45-9.25L17.45-9.25Q17.45-10.75 16.98-11.43 16.5-12.1 15-12.45ZM50.2-12.4L50.2-12.4Q50.2-5.4 47.52-2.48 44.85 0.45 38.4 0.45L38.4 0.45Q31.85 0.45 29.2-2.43 26.55-5.3 26.55-12.4L26.55-12.4Q26.55-19.35 29.25-22.28 31.95-25.2 38.4-25.2L38.4-25.2Q44.9-25.2 47.55-22.33 50.2-19.45 50.2-12.4ZM32.35-12.45L32.35-12.45Q32.35-7.85 33.5-6.4 34.65-4.95 38.4-4.95L38.4-4.95Q42.05-4.95 43.22-6.43 44.4-7.9 44.4-12.45L44.4-12.45Q44.4-17.1 43.27-18.55 42.15-20 38.4-20L38.4-20Q34.7-20 33.52-18.5 32.35-17 32.35-12.45ZM60.45-18.3L60.45 0 54.65 0 54.65-24.7 59.65-24.7 59.9-22.2 60.05-22.2Q61.8-23.75 63.82-24.48 65.84-25.2 68.59-25.2L68.59-25.2Q72.7-25.2 74.84-23.15 77-21.1 77-17.1L77-17.1 77 0 71.2 0 71.2-16.35Q71.2-18.15 70.02-19.07 68.84-20 66.55-20L66.55-20Q64.9-20 63.35-19.58 61.8-19.15 60.45-18.3L60.45-18.3ZM88.14 0.45L88.14 0.45Q84.34 0.45 82.57-1.43 80.79-3.3 80.79-7.3L80.79-7.3Q80.79-11.4 82.92-13.1 85.04-14.8 90.24-14.8L90.24-14.8Q91.69-14.8 93.19-14.65 94.69-14.5 95.79-14.25L95.79-14.25 95.79-16.35Q95.79-18.3 94.59-19.2 93.39-20.1 90.79-20.1L90.79-20.1Q88.44-20.1 86.62-19.95 84.79-19.8 83.14-19.45L83.14-19.45 83.14-24.3Q85.04-24.75 87.27-24.98 89.49-25.2 92.54-25.2L92.54-25.2Q97.09-25.2 99.34-23.13 101.59-21.05 101.59-16.9L101.59-16.9 101.59 0 96.24 0 95.99-2.2 95.89-2.2Q94.29-1 92.22-0.28 90.14 0.45 88.14 0.45ZM90.94-10.65L90.94-10.65Q88.24-10.65 87.24-10.03 86.24-9.4 86.24-7.65L86.24-7.65Q86.24-5.95 87.07-5.23 87.89-4.5 89.89-4.5L89.89-4.5Q91.34-4.5 92.97-4.93 94.59-5.35 95.79-6L95.79-6 95.79-10.25Q94.59-10.45 93.42-10.55 92.24-10.65 90.94-10.65ZM122.09-5.4L122.09-5.4 122.09-0.45Q121.24-0.1 119.72 0.18 118.19 0.45 116.94 0.45L116.94 0.45Q112.19 0.45 110.14-1.63 108.09-3.7 108.09-8.55L108.09-8.55 108.09-19.85 104.79-19.85 104.79-24.7 108.24-24.7 109.04-30.6 113.89-30.6 113.89-24.7 121.79-24.7 121.79-19.85 113.89-19.85 113.89-8.75Q113.89-6.55 114.84-5.75 115.79-4.95 118.24-4.95L118.24-4.95Q119.09-4.95 120.24-5.08 121.39-5.2 122.09-5.4ZM131.24 0.45L131.24 0.45Q127.44 0.45 125.66-1.43 123.89-3.3 123.89-7.3L123.89-7.3Q123.89-11.4 126.01-13.1 128.14-14.8 133.34-14.8L133.34-14.8Q134.79-14.8 136.29-14.65 137.79-14.5 138.89-14.25L138.89-14.25 138.89-16.35Q138.89-18.3 137.69-19.2 136.49-20.1 133.89-20.1L133.89-20.1Q131.54-20.1 129.71-19.95 127.89-19.8 126.24-19.45L126.24-19.45 126.24-24.3Q128.14-24.75 130.36-24.98 132.59-25.2 135.64-25.2L135.64-25.2Q140.19-25.2 142.44-23.13 144.69-21.05 144.69-16.9L144.69-16.9 144.69 0 139.34 0 139.09-2.2 138.99-2.2Q137.39-1 135.31-0.28 133.24 0.45 131.24 0.45ZM134.04-10.65L134.04-10.65Q131.34-10.65 130.34-10.03 129.34-9.4 129.34-7.65L129.34-7.65Q129.34-5.95 130.16-5.23 130.99-4.5 132.99-4.5L132.99-4.5Q134.44-4.5 136.06-4.93 137.69-5.35 138.89-6L138.89-6 138.89-10.25Q137.69-10.45 136.51-10.55 135.34-10.65 134.04-10.65ZM155.94-6.4L153.73 0 147.44 0 159.44-31.35 165.63-31.35 177.44 0 171.13 0 168.88-6.4 155.94-6.4ZM162.38-25.6L162.38-25.6Q161.84-23.7 161.16-21.6 160.48-19.5 159.88-17.7L159.88-17.7 157.69-11.35 167.13-11.35 164.94-17.7Q164.38-19.3 163.69-21.43 162.98-23.55 162.38-25.6ZM180.63-31.35L186.63-31.35 186.63 0 180.63 0 180.63-31.35Z" opacity="1" transform="matrix(1,0,0,1,0,0)" fill="#ffffff" class="wordmark-text-0" data-fill-palette-color="primary" id="text-0"></path></svg></g></svg></g></svg></g></svg></g><g transform="matrix(1,0,0,1,42.793895086136196,0)"><svg viewBox="0 0 106.41220982772761 46.36522153097108" height="46.36522153097108" width="106.41220982772761"><g><svg xmlns="http://www.w3.org/2000/svg" xmlns:xlink="http://www.w3.org/1999/xlink" version="1.1" x="0" y="0" viewBox="2.329 29.813 92.632 40.36099999999999" style="enable-background:new 0 0 100 100;" xml:space="preserve" height="46.36522153097108" width="106.41220982772761" class="icon-icon-0" data-fill-palette-color="accent" id="icon-0"><g fill="#6ee2f5" data-fill-palette-color="accent"><path d="M26.436 29.813C25.388 29.813 24.538 30.663 24.538 31.711V68.276A1.898 1.898 0 0 0 28.334 68.276V31.711C28.334 30.663 27.484 29.813 26.436 29.813" fill="#6ee2f5" data-fill-palette-color="accent"></path><path d="M78.257 34.624C77.21 34.624 76.36 35.474 76.36 36.523V63.465A1.898 1.898 0 0 0 80.156 63.465V36.523C80.156 35.474 79.306 34.624 78.257 34.624" fill="#6ee2f5" data-fill-palette-color="accent"></path><path d="M85.66 41.841C84.612 41.841 83.762 42.691 83.762 43.739V56.25A1.898 1.898 0 0 0 87.56 56.248V43.738A1.9 1.9 0 0 0 85.66 41.841" fill="#6ee2f5" data-fill-palette-color="accent"></path><path d="M93.063 44.246C92.015 44.246 91.165 45.096 91.165 46.144V53.843A1.898 1.898 0 0 0 94.961 53.843V46.144C94.961 45.096 94.111 44.246 93.063 44.246" fill="#6ee2f5" data-fill-palette-color="accent"></path><path d="M19.033 34.624C17.984 34.624 17.134 35.474 17.134 36.523V63.465A1.898 1.898 0 0 0 20.931 63.465V36.523A1.9 1.9 0 0 0 19.033 34.624" fill="#6ee2f5" data-fill-palette-color="accent"></path><path d="M11.63 41.841C10.58 41.841 9.732 42.691 9.732 43.739V56.25A1.898 1.898 0 0 0 13.528 56.248V43.738C13.528 42.691 12.678 41.841 11.63 41.841" fill="#6ee2f5" data-fill-palette-color="accent"></path><path d="M4.227 44.246C3.179 44.246 2.329 45.096 2.329 46.144V53.843A1.898 1.898 0 0 0 6.125 53.843V46.144C6.125 45.096 5.275 44.246 4.227 44.246" fill="#6ee2f5" data-fill-palette-color="accent"></path><path d="M33.839 34.624C32.79 34.624 31.94 35.474 31.94 36.523V63.465A1.898 1.898 0 0 0 35.737 63.465V36.523C35.737 35.474 34.887 34.624 33.839 34.624" fill="#6ee2f5" data-fill-palette-color="accent"></path><path d="M63.451 34.624C62.403 34.624 61.553 35.474 61.553 36.523V63.465A1.898 1.898 0 0 0 65.349 63.465V36.523A1.897 1.897 0 0 0 63.451 34.624" fill="#6ee2f5" data-fill-palette-color="accent"></path><path d="M41.242 41.841C40.194 41.841 39.344 42.691 39.344 43.739V56.25A1.898 1.898 0 0 0 43.14 56.248V43.738C43.14 42.691 42.29 41.841 41.242 41.841" fill="#6ee2f5" data-fill-palette-color="accent"></path><path d="M56.048 41.841C55 41.841 54.15 42.691 54.15 43.739V56.25A1.898 1.898 0 0 0 57.946 56.248V43.738C57.946 42.691 57.096 41.841 56.048 41.841" fill="#6ee2f5" data-fill-palette-color="accent"></path><path d="M48.645 44.246C47.597 44.246 46.747 45.096 46.747 46.144V53.843A1.898 1.898 0 0 0 50.543 53.843V46.144C50.543 45.096 49.693 44.246 48.645 44.246" fill="#6ee2f5" data-fill-palette-color="accent"></path><path d="M70.854 29.813C69.806 29.813 68.956 30.663 68.956 31.711V68.276A1.898 1.898 0 0 0 72.752 68.276V31.711C72.752 30.663 71.902 29.813 70.854 29.813" fill="#6ee2f5" data-fill-palette-color="accent"></path></g></svg></g></svg></g><g></g></svg></g></svg></g></svg></g></svg></g><defs></defs></svg><rect width="320" height="360" fill="none" stroke="none" visibility="hidden"></rect></g></svg></g></svg>